<?xml version="1.0" encoding="utf-8"?>
<!-- Generator: Adobe Illustrator 16.0.0, SVG Export Plug-In . SVG Version: 6.00 Build 0)  -->
<!DOCTYPE svg PUBLIC "-//W3C//DTD SVG 1.1//EN" "http://www.w3.org/Graphics/SVG/1.1/DTD/svg11.dtd">
<svg version="1.1" id="Layer_1" xmlns="http://www.w3.org/2000/svg" xmlns:xlink="http://www.w3.org/1999/xlink" x="0px" y="0px"
	 width="318px" height="105px" viewBox="0 0 318 105" enable-background="new 0 0 318 105" xml:space="preserve">
<path fill="none" stroke="#20181C" stroke-width="2.341" d="M194.666,8.639h16.954v87.447h-16.954V8.639z M153.851,56.486v39.6
	h-16.954v-39.6L106.758,8.639h19.339l19.341,30.733L164.65,8.639h19.342L153.851,56.486z M52.131,60.981L84.156,8.639h11.928v87.447
	H79.132V47.367L58.034,81.721H46.228L25.13,47.367v48.719H8.178V8.639h11.928L52.131,60.981z"/>
<path fill="none" stroke="#20181C" stroke-width="1.733" d="M87.613,16.937l-3.457-8.47 M87.613,16.937l8.504-8.47 M87.613,16.937
	L52.041,74.122 M87.613,16.937v70.864 M79.109,96.272l8.504-8.472l8.504,8.467 M16.469,16.937l3.457-8.47 M16.469,16.937
	l-8.505-8.47 M265.813,16.937l31.578,70.864 M291.822,96.272l5.569-8.472l12.186,8.467 M265.815,16.937l-31.576,70.864
	 M239.809,96.272l-5.569-8.472l-12.187,8.467 M145.551,52.847l24.396-35.914 M184.273,8.464l-14.326,8.469l-4.334-8.466
	 M145.551,52.847l-23.669-35.914 M107.555,8.464l14.327,8.469l4.334-8.466 M16.469,16.937l35.572,57.185 M57.961,81.846l-5.92-7.724
	l-5.92,7.72 M16.469,16.937v70.864 M24.973,96.272l-8.504-8.472l-8.505,8.467 M145.551,52.847v34.954 M154.055,96.272l-8.504-8.472
	l-8.505,8.467 M259.835,8.467l5.98,8.47l5.983-8.466 M203.482,16.937v70.864 M194.979,8.467l8.504,8.47l8.506-8.466 M211.988,96.272
	l-8.506-8.472l-8.504,8.467"/>
<path fill="none" stroke="#20181C" stroke-width="2.341" d="M254.795,61.731h22.124l-11.063-25.856L254.795,61.731z M222.727,96.077
	l37.289-87.43h11.808l37.287,87.43h-17.524l-8.204-19.359h-34.927l-8.201,19.359H222.727z"/>
<path fill="none" stroke="#20181C" stroke-width="1.733" d="M145.846,39.252v13.534 M289.062,69.255h-46.56 M277.026,61.723
	l12.035,7.532 M283.436,76.786l5.626-7.531 M254.537,61.723l-12.035,7.532 M248.128,76.786l-5.626-7.531"/>
</svg>
