<?xml version="1.0" encoding="utf-8"?>
<!-- Generator: Adobe Illustrator 16.0.0, SVG Export Plug-In . SVG Version: 6.00 Build 0)  -->
<!DOCTYPE svg PUBLIC "-//W3C//DTD SVG 1.1//EN" "http://www.w3.org/Graphics/SVG/1.1/DTD/svg11.dtd">
<svg version="1.1" id="Layer_1" xmlns="http://www.w3.org/2000/svg" xmlns:xlink="http://www.w3.org/1999/xlink" x="0px" y="0px"
	 width="205px" height="77px" viewBox="0 0 205 77" enable-background="new 0 0 205 77" xml:space="preserve">
<path fill="none" stroke="#20181C" stroke-width="1.5" d="M127.125,10.71h10.861v56.023h-10.861V10.71z M100.977,41.364v25.369
	H90.115V41.364L70.807,10.71h12.391l12.39,19.69l12.309-19.69h12.392L100.977,41.364z M35.811,44.244L56.328,10.71h7.641v56.023
	H53.109V35.521L39.593,57.53h-7.563L18.513,35.521v31.212H7.653V10.71h7.641L35.811,44.244z"/>
<path fill="none" stroke="#20181C" stroke-width="1.5" d="M58.543,16.026L56.328,10.6 M58.543,16.026L63.99,10.6 M58.543,16.026
	L35.754,52.662 M58.543,16.026v45.399 M53.094,66.852l5.449-5.427l5.447,5.424 M12.964,16.026l2.214-5.426 M12.964,16.026
	L7.516,10.6 M172.705,16.026l20.231,45.399 M189.367,66.852l3.569-5.427l7.806,5.424 M172.707,16.026l-20.229,45.399
	 M156.046,66.852l-3.568-5.427l-7.807,5.424 M95.66,39.032l15.629-23.008 M120.468,10.598l-9.179,5.426l-2.776-5.424 M95.66,39.032
	L80.496,16.024 M71.317,10.598l9.179,5.426l2.776-5.424 M12.964,16.026l22.79,36.636 M39.545,57.609l-3.791-4.947l-3.793,4.946
	 M12.964,16.026v45.399 M18.413,66.852l-5.448-5.427l-5.449,5.424 M95.66,39.032v22.393 M101.108,66.852l-5.448-5.427l-5.449,5.424
	 M168.875,10.6l3.832,5.426l3.832-5.424 M132.774,16.026v45.399 M127.325,10.6l5.449,5.426l5.448-5.424 M138.223,66.852
	l-5.448-5.427l-5.449,5.424"/>
<path fill="none" stroke="#20181C" stroke-width="1.5" d="M165.646,44.724h14.174l-7.087-16.564L165.646,44.724z M145.103,66.728
	l23.889-56.012h7.563l23.889,56.012h-11.228l-5.256-12.402h-22.375l-5.255,12.402H145.103z"/>
<path fill="none" stroke="#20181C" stroke-width="1.5" d="M95.85,30.323v8.671 M187.6,49.544h-29.828 M179.889,44.719l7.711,4.825
	 M183.994,54.369l3.605-4.825 M165.481,44.719l-7.71,4.825 M161.376,54.369l-3.604-4.825"/>
</svg>
